<?xml version="1.0" encoding="UTF-8"?>
<!--Generator: Apple Native CoreSVG 232.5-->
<!DOCTYPE svg
PUBLIC "-//W3C//DTD SVG 1.1//EN"
       "http://www.w3.org/Graphics/SVG/1.1/DTD/svg11.dtd">
<svg version="1.1" xmlns="http://www.w3.org/2000/svg" xmlns:xlink="http://www.w3.org/1999/xlink" width="60.3125" height="69.7266">
 <g>
  <rect height="69.7266" opacity="0" width="60.3125" x="0" y="0"/>
  <path d="M15.4297 14.375L19.4141 10.3906L9.92188 0.898438C8.82812-0.195312 7.03125-0.195312 5.9375 0.898438C4.84375 1.99219 4.84375 3.78906 5.9375 4.88281ZM55.1953 50.0391L51.25 46.0547C46.4062 50.8984 39.7656 53.8281 32.2656 53.8281C17.3438 53.8281 5.625 42.1094 5.625 27.2266C5.625 19.7656 8.59375 13.0859 13.3594 8.32031L9.25781 4.45312C3.51562 10.2344 0 18.2812 0 27.2266C0 45.2344 14.2578 59.4922 32.2656 59.4922C41.2891 59.4922 49.3359 55.8984 55.1953 50.0391ZM48.7109 39.6875L44.5312 43.4766L55.5078 54.4531C56.6016 55.5078 58.3984 55.5078 59.4922 54.4531C60.5859 53.3594 60.5859 51.5234 59.4922 50.4688ZM29.4531 58.0078L29.4531 66.2109L35.0781 66.2109L35.0781 58.0078ZM20.8594 69.7266L43.6719 69.7266C45.1953 69.7266 46.4844 68.4766 46.4844 66.9141C46.4844 65.3906 45.1953 64.1016 43.6719 64.1016L20.8594 64.1016C19.3359 64.1016 18.0469 65.3906 18.0469 66.9141C18.0469 68.4766 19.3359 69.7266 20.8594 69.7266ZM32.2656 49.7266C44.6875 49.7266 54.7656 39.6484 54.7656 27.2266C54.7656 14.8047 44.6875 4.72656 32.2656 4.72656C19.8438 4.72656 9.76562 14.8047 9.76562 27.2266C9.76562 39.6484 19.8438 49.7266 32.2656 49.7266Z" fill="#ffffff"/>
 </g>
</svg>
