<?xml version="1.0" encoding="UTF-8"?>
<svg width="14px" height="14px" viewBox="0 0 14 14" version="1.1" xmlns="http://www.w3.org/2000/svg" xmlns:xlink="http://www.w3.org/1999/xlink">
    <title>sun.horizon</title>
    <g id="Page-1" stroke="none" stroke-width="1" fill="none" fill-rule="evenodd">
        <g id="sun.horizon">
            <rect id="Rectangle" fill="#000000" fill-rule="nonzero" opacity="0" x="1" y="3" width="12.3047" height="8.26758"></rect>
            <path d="M9.41992,8.29688 C9.41992,8.82155 9.26187,9.31011 8.98127,9.71484 L7.79807,9.71484 C8.26388,9.41361 8.57617,8.88885 8.57617,8.29688 C8.57617,7.37109 7.80859,6.60352 6.88281,6.60352 C5.95703,6.60352 5.18945,7.37109 5.18945,8.29688 C5.18945,8.88885 5.50175,9.41361 5.96755,9.71484 L4.78435,9.71484 C4.50376,9.31011 4.3457,8.82156 4.3457,8.29688 C4.3457,6.9082 5.5,5.75391 6.88281,5.75391 C8.26562,5.75391 9.41992,6.9082 9.41992,8.29688 Z M3.53711,8.179685 C3.54297,8.41406 3.33789,8.60742 3.0625,8.60742 L2.06055,8.60742 C1.785156,8.60742 1.585938,8.41406 1.585938,8.179685 C1.585938,7.94531 1.785156,7.75195 2.06055,7.75195 L3.0625,7.75195 C3.33203,7.75195 3.53125,7.94531 3.53711,8.179685 Z M12.1797,8.179685 C12.1797,8.41406 11.9805,8.60742 11.7051,8.60742 L10.70312,8.60742 C10.43359,8.60742 10.23438,8.41406 10.22852,8.179685 C10.22266,7.94531 10.43359,7.75195 10.70312,7.75195 L11.7051,7.75195 C11.9805,7.75195 12.1797,7.94531 12.1797,8.179685 Z M3.77148,4.58203 L4.48047,5.29102 C4.67969,5.48438 4.67969,5.75977 4.51562,5.92969 C4.35156,6.09961 4.07031,6.09375 3.87695,5.89453 L3.16797,5.18555 C2.96875,4.99219 2.96875,4.7168 3.13867,4.55273 C3.30859,4.38867 3.57812,4.38281 3.77148,4.58203 Z M10.62695,4.55273 C10.79102,4.72266 10.79688,4.99219 10.59766,5.18555 L9.88867,5.89453 C9.69531,6.09375 9.41992,6.09375 9.25,5.92969 C9.08008,5.76562 9.08594,5.48438 9.28516,5.29102 L9.99414,4.58203 C10.1875,4.38281 10.46289,4.38281 10.62695,4.55273 Z M7.31055,3.46875 L7.31055,4.4707 C7.31055,4.74609 7.11719,4.94531 6.882815,4.95117 C6.64844,4.95703 6.45508,4.74609 6.45508,4.4707 L6.45508,3.46875 C6.45508,3.199219 6.64844,3 6.882815,3 C7.11719,3 7.31055,3.199219 7.31055,3.46875 Z" id="Shape" fill="#F9E2AF" fill-rule="nonzero"></path>
            <path d="M1.457031,10.55859 L12.3086,10.55859 C12.5547,10.55859 12.7656,10.36523 12.7656,10.136715 C12.7656,9.9082 12.5547,9.71484 12.3086,9.71484 L1.457031,9.71484 C1.210938,9.71484 1,9.9082 1,10.136715 C1,10.36523 1.210938,10.55859 1.457031,10.55859 Z" id="Path" fill="#F9E2AF" fill-rule="nonzero"></path>
            <rect id="Rectangle" x="0" y="0" width="14" height="14"></rect>
        </g>
    </g>
</svg>