<?xml version="1.0" encoding="UTF-8"?>
<!--Generator: Apple Native CoreSVG 232.5-->
<!DOCTYPE svg
PUBLIC "-//W3C//DTD SVG 1.1//EN"
       "http://www.w3.org/Graphics/SVG/1.1/DTD/svg11.dtd">
<svg version="1.1" xmlns="http://www.w3.org/2000/svg" xmlns:xlink="http://www.w3.org/1999/xlink" width="92.1094" height="71.9922">
 <g>
  <rect height="71.9922" opacity="0" width="92.1094" x="0" y="0"/>
  <path d="M92.1094 12.1875L92.1094 59.8828C92.1094 67.9297 88.0469 71.9922 79.8438 71.9922L12.2656 71.9922C4.10156 71.9922 0 67.9688 0 59.8828L0 12.1875C0 4.10156 4.10156 0.078125 12.2656 0.078125L79.8438 0.078125C88.0469 0.078125 92.1094 4.14062 92.1094 12.1875ZM6.28906 19.7656L6.28906 59.5703C6.28906 63.6328 8.4375 65.7031 12.3438 65.7031L79.7656 65.7031C83.6328 65.7031 85.8203 63.6328 85.8203 59.5703L85.8203 19.7656ZM8.90625 9.92188C8.90625 11.7578 10.4688 13.3984 12.3828 13.3984C14.2969 13.3984 15.8984 11.7578 15.8984 9.92188C15.8984 8.08594 14.2969 6.44531 12.3828 6.44531C10.4688 6.44531 8.90625 8.08594 8.90625 9.92188ZM20.1172 9.92188C20.1172 11.7578 21.6797 13.3984 23.5938 13.3984C25.5078 13.3984 27.1094 11.7578 27.1094 9.92188C27.1094 8.08594 25.5078 6.44531 23.5938 6.44531C21.6797 6.44531 20.1172 8.08594 20.1172 9.92188ZM31.3281 9.92188C31.3281 11.7578 32.8906 13.3984 34.8047 13.3984C36.7188 13.3984 38.2812 11.7578 38.2812 9.92188C38.2812 8.08594 36.7188 6.44531 34.8047 6.44531C32.8906 6.44531 31.3281 8.08594 31.3281 9.92188Z" fill="#ffffff"/>
 </g>
</svg>
