<?xml version="1.0" encoding="UTF-8"?>
<!--Generator: Apple Native CoreSVG 232.5-->
<!DOCTYPE svg
PUBLIC "-//W3C//DTD SVG 1.1//EN"
       "http://www.w3.org/Graphics/SVG/1.1/DTD/svg11.dtd">
<svg version="1.1" xmlns="http://www.w3.org/2000/svg" xmlns:xlink="http://www.w3.org/1999/xlink" width="74.5312" height="87.5391">
 <g>
  <rect height="87.5391" opacity="0" width="74.5312" x="0" y="0"/>
  <path d="M52.1484 87.4219C57.3047 87.4219 61.5234 83.2031 61.5234 78.0469C61.5234 72.8516 57.3047 68.6328 52.1484 68.6328C46.9531 68.6328 42.7344 72.8516 42.7344 78.0469C42.7344 83.2031 46.9531 87.4219 52.1484 87.4219ZM52.1484 82.6172C49.5703 82.6172 47.5781 80.5859 47.5781 78.0078C47.5781 75.4297 49.5703 73.4375 52.1484 73.4375C54.7266 73.4375 56.7188 75.4297 56.7188 78.0078C56.7188 80.5859 54.7266 82.6172 52.1484 82.6172ZM45.9375 74.8828L3.125 74.8828C1.36719 74.8828 0 76.2891 0 78.0469C0 79.8047 1.36719 81.1719 3.125 81.1719L45.9375 81.1719ZM71.5234 74.8828L58.9062 74.8828L58.9062 81.1719L71.5234 81.1719C73.125 81.1719 74.5312 79.8047 74.5312 78.0469C74.5312 76.2891 73.125 74.8828 71.5234 74.8828Z" fill="#ffffff"/>
  <path d="M37.5391 47.7734C45.9766 47.7734 52.9688 40.7422 52.9688 32.3047C52.9688 23.7891 45.9766 16.7578 37.5391 16.7578C29.0625 16.7578 22.0703 23.7891 22.0703 32.3047C22.0703 40.7422 29.0625 47.7734 37.5391 47.7734ZM37.5391 0C35.8594 0 34.4141 1.48438 34.4141 3.16406L34.4141 9.41406C34.4141 11.0938 35.8594 12.5391 37.5391 12.5391C39.2188 12.5391 40.7031 11.0938 40.7031 9.41406L40.7031 3.16406C40.7031 1.48438 39.2188 0 37.5391 0ZM60.3516 9.45312C59.1016 8.24219 57.1094 8.24219 55.9375 9.45312L51.4453 13.9844C50.2344 15.1953 50.3125 17.2266 51.4453 18.3984C52.6562 19.5703 54.6875 19.6094 55.8984 18.3984L60.3516 13.8672C61.5234 12.6172 61.5625 10.6641 60.3516 9.45312ZM69.6875 32.3047C69.6875 30.5078 68.3203 29.1406 66.6406 29.1406L60.3516 29.1406C58.6719 29.1406 57.2656 30.5859 57.2656 32.3047C57.2656 33.9844 58.6719 35.3906 60.3516 35.3906L66.6406 35.3906C68.3203 35.3906 69.6875 34.0625 69.6875 32.3047ZM60.3516 55.1172C61.6016 53.7891 61.5625 51.9141 60.3516 50.7031L55.8594 46.2109C54.6094 44.9609 52.6562 45.0391 51.4453 46.2109C50.2734 47.4219 50.2344 49.4141 51.4453 50.625L55.9375 55.1172C57.1484 56.2891 59.1016 56.25 60.3516 55.1172ZM37.5391 64.5703C39.2188 64.5703 40.7031 63.0859 40.7031 61.3672L40.7031 55.1562C40.7031 53.4766 39.2188 52.0312 37.5391 52.0312C35.8594 52.0312 34.4141 53.4766 34.4141 55.1562L34.4141 61.3672C34.4141 63.0859 35.8594 64.5703 37.5391 64.5703ZM14.7266 55.0781C15.8984 56.25 17.9688 56.2891 19.1406 55.1172L23.6328 50.625C24.8047 49.4531 24.7656 47.4609 23.6328 46.2109C22.4219 45.0391 20.3906 45 19.1797 46.2109L14.7266 50.7031C13.5547 51.875 13.5547 53.7891 14.7266 55.0781ZM5.39062 32.3047C5.39062 34.0625 6.75781 35.3906 8.4375 35.3906L14.7266 35.3906C16.4062 35.3906 17.8516 33.9844 17.8516 32.3047C17.8516 30.5859 16.4062 29.1406 14.7266 29.1406L8.4375 29.1406C6.75781 29.1406 5.39062 30.5078 5.39062 32.3047ZM14.7656 9.45312C13.6328 10.6641 13.5547 12.6562 14.7266 13.8672L19.1797 18.3984C20.3906 19.6094 22.3828 19.5703 23.6328 18.3984C24.7656 17.1484 24.8047 15.1562 23.6328 13.9844L19.1406 9.45312C18.0078 8.32031 15.9766 8.28125 14.7656 9.45312Z" fill="#ffffff"/>
 </g>
</svg>
