<?xml version="1.0" encoding="UTF-8"?>
<!--Generator: Apple Native CoreSVG 232.5-->
<!DOCTYPE svg
PUBLIC "-//W3C//DTD SVG 1.1//EN"
       "http://www.w3.org/Graphics/SVG/1.1/DTD/svg11.dtd">
<svg version="1.1" xmlns="http://www.w3.org/2000/svg" xmlns:xlink="http://www.w3.org/1999/xlink" width="100.117" height="69.7266">
 <g>
  <rect height="69.7266" opacity="0" width="100.117" x="0" y="0"/>
  <path d="M71.4062 45.0781C71.4062 49.692 69.8966 53.967 67.3368 57.4609L58.4497 57.4609C62.4723 54.8201 65.1562 50.2397 65.1562 45.0781C65.1562 36.7969 58.3203 29.9609 50.0781 29.9609C41.7969 29.9609 34.9609 36.7969 34.9609 45.0781C34.9609 50.2397 37.6449 54.8201 41.6675 57.4609L32.7804 57.4609C30.2206 53.967 28.7109 49.692 28.7109 45.0781C28.7109 33.3594 38.3984 23.6719 50.0781 23.6719C61.7188 23.6719 71.4062 33.3594 71.4062 45.0781ZM21.6016 44.0625C21.6406 45.8203 20.1172 47.2266 18.0859 47.2266L8.47656 47.2266C6.44531 47.2266 5 45.8203 5 44.0625C5 42.3047 6.44531 40.8984 8.47656 40.8984L18.0859 40.8984C20.0781 40.8984 21.5625 42.3047 21.6016 44.0625ZM95.1172 44.0625C95.1172 45.8203 93.6719 47.2266 91.6406 47.2266L82.0312 47.2266C80.0391 47.2266 78.5547 45.8203 78.5156 44.0625C78.4766 42.3047 80.0391 40.8984 82.0312 40.8984L91.6406 40.8984C93.6719 40.8984 95.1172 42.3047 95.1172 44.0625ZM22.8906 13.3984L29.6875 20.1953C31.1328 21.6016 31.1328 23.6719 29.9219 24.9219C28.7109 26.1719 26.6016 26.1328 25.1953 24.6875L18.3984 17.8906C16.9141 16.4453 16.9531 14.4141 18.2031 13.2031C19.4531 11.9922 21.4453 11.9141 22.8906 13.3984ZM81.9141 13.2031C83.125 14.4531 83.2031 16.4453 81.7188 17.8906L74.9219 24.6875C73.5156 26.1328 71.4453 26.1328 70.1953 24.9219C68.9453 23.7109 68.9844 21.6016 70.4297 20.1953L77.2266 13.3984C78.6719 11.9141 80.7031 11.9531 81.9141 13.2031ZM53.2422 3.47656L53.2422 13.0859C53.2422 15.0781 51.7969 16.5625 50.0781 16.6016C48.3203 16.6406 46.875 15.0781 46.875 13.0859L46.875 3.47656C46.875 1.44531 48.3203 0 50.0781 0C51.7969 0 53.2422 1.44531 53.2422 3.47656Z" fill="#ffffff"/>
  <path d="M3.39844 63.7109L96.7188 63.7109C98.5547 63.7109 100.117 62.3047 100.117 60.5859C100.117 58.8672 98.5547 57.4609 96.7188 57.4609L3.39844 57.4609C1.5625 57.4609 0 58.8672 0 60.5859C0 62.3047 1.5625 63.7109 3.39844 63.7109Z" fill="#ffffff"/>
 </g>
</svg>
