<?xml version="1.0" encoding="UTF-8"?>
<svg width="600px" height="600px" viewBox="0 0 600 600" version="1.1" xmlns="http://www.w3.org/2000/svg" xmlns:xlink="http://www.w3.org/1999/xlink">
    <title>Rectangle</title>
    <g id="Page-1" stroke="none" stroke-width="1" fill="none" fill-rule="evenodd">
        <rect id="Rectangle" x="0" y="0" width="600" height="600"></rect>
        <g id="calculator" transform="translate(93, 0)" fill="#FFFFFF" fill-rule="nonzero">
            <path d="M349.333333,0 C384.679557,2.84217094e-14 413.333333,28.653776 413.333333,64 L413.333333,536 C413.333333,571.346224 384.679557,600 349.333333,600 L64,600 C28.653776,600 -2.84217094e-14,571.346224 -2.84217094e-14,536 L-5.68434189e-14,64 C-5.68434189e-14,28.653776 28.653776,7.10542736e-15 64,0 L349.333333,0 Z M206.666667,480 L80,480 C57.90861,480 40,497.90861 40,520 C40,542.09139 57.90861,560 80,560 L206.666667,560 C228.758057,560 246.666667,542.09139 246.666667,520 C246.666667,497.90861 228.758057,480 206.666667,480 Z M333.333333,480 C311.241943,480 293.333333,497.90861 293.333333,520 C293.333333,542.09139 311.241943,560 333.333333,560 C355.424723,560 373.333333,542.09139 373.333333,520 C373.333333,497.90861 355.424723,480 333.333333,480 Z M80,353.333333 C57.90861,353.333333 40,371.241943 40,393.333333 C40,415.424723 57.90861,433.333333 80,433.333333 C102.09139,433.333333 120,415.424723 120,393.333333 C120,371.241943 102.09139,353.333333 80,353.333333 Z M206.666667,353.333333 C184.575277,353.333333 166.666667,371.241943 166.666667,393.333333 C166.666667,415.424723 184.575277,433.333333 206.666667,433.333333 C228.758057,433.333333 246.666667,415.424723 246.666667,393.333333 C246.666667,371.241943 228.758057,353.333333 206.666667,353.333333 Z M333.333333,353.333333 C311.241943,353.333333 293.333333,371.241943 293.333333,393.333333 C293.333333,415.424723 311.241943,433.333333 333.333333,433.333333 C355.424723,433.333333 373.333333,415.424723 373.333333,393.333333 C373.333333,371.241943 355.424723,353.333333 333.333333,353.333333 Z M80,226.666667 C57.90861,226.666667 40,244.575277 40,266.666667 C40,288.758057 57.90861,306.666667 80,306.666667 C102.09139,306.666667 120,288.758057 120,266.666667 C120,244.575277 102.09139,226.666667 80,226.666667 Z M206.666667,226.666667 C184.575277,226.666667 166.666667,244.575277 166.666667,266.666667 C166.666667,288.758057 184.575277,306.666667 206.666667,306.666667 C228.758057,306.666667 246.666667,288.758057 246.666667,266.666667 C246.666667,244.575277 228.758057,226.666667 206.666667,226.666667 Z M333.333333,226.666667 C311.241943,226.666667 293.333333,244.575277 293.333333,266.666667 C293.333333,288.758057 311.241943,306.666667 333.333333,306.666667 C355.424723,306.666667 373.333333,288.758057 373.333333,266.666667 C373.333333,244.575277 355.424723,226.666667 333.333333,226.666667 Z M349.333333,40 L64,40 C50.745166,40 40,50.745166 40,64 L40,156 C40,169.254834 50.745166,180 64,180 L349.333333,180 C362.588167,180 373.333333,169.254834 373.333333,156 L373.333333,64 C373.333333,50.745166 362.588167,40 349.333333,40 Z" id="Combined-Shape"></path>
        </g>
    </g>
</svg>