<?xml version="1.0" encoding="UTF-8"?>
<!--Generator: Apple Native CoreSVG 232.5-->
<!DOCTYPE svg
PUBLIC "-//W3C//DTD SVG 1.1//EN"
       "http://www.w3.org/Graphics/SVG/1.1/DTD/svg11.dtd">
<svg version="1.1" xmlns="http://www.w3.org/2000/svg" xmlns:xlink="http://www.w3.org/1999/xlink" width="69.1016" height="68.076">
 <g>
  <rect height="68.076" opacity="0" width="69.1016" x="0" y="0"/>
  <path d="M34.5312 63.745C35.2344 63.745 35.9375 63.7059 36.6406 63.6669L38.3984 67.0263C38.7891 67.8075 39.6094 68.1981 40.5078 68.0419C41.3672 67.8466 42.0312 67.1825 42.1094 66.2841L42.6953 62.6122C44.0625 62.2606 45.3516 61.7138 46.6797 61.2059L49.4141 63.6278C50.0391 64.2138 51.0156 64.4091 51.8359 63.9403C52.5781 63.4716 52.9688 62.5731 52.7344 61.7138L51.9922 58.12C53.0859 57.2606 54.2188 56.3622 55.1953 55.4247L58.5938 56.8309C59.5312 57.2216 60.3906 56.9481 61.0156 56.2059C61.5234 55.5419 61.6016 54.6044 61.1719 53.8622L59.1797 50.6981C59.9609 49.5263 60.625 48.3153 61.2891 46.9872L65 47.1434C65.8594 47.1825 66.7188 46.7138 66.9922 45.8153C67.3047 44.995 66.9531 44.0966 66.2891 43.5497L63.3984 41.245C63.75 39.9169 63.9844 38.5106 64.1016 37.0653L67.5781 35.9325C68.5156 35.62 69.1016 34.9559 69.1016 34.0184C69.1016 33.0809 68.5156 32.4169 67.5781 32.1044L64.1016 30.9716C63.9844 29.5263 63.75 28.1591 63.3984 26.7919L66.2891 24.4872C66.9531 23.9403 67.3047 23.0809 66.9922 22.2606C66.7188 21.3622 65.8594 20.8934 65 20.9325L61.2891 21.0497C60.625 19.7216 59.9609 18.5497 59.1797 17.3388L61.1719 14.1747C61.6016 13.4716 61.5234 12.5341 61.0156 11.87C60.3906 11.1278 59.5312 10.8934 58.6328 11.245L55.1953 12.6122C54.2188 11.7138 53.0859 10.7763 51.9922 9.95595L52.7344 6.3622C52.9297 5.4247 52.5781 4.56532 51.8359 4.13564C51.0156 3.66689 50.0391 3.78407 49.4141 4.44814L46.6797 6.83095C45.3516 6.32314 44.0625 5.81532 42.6953 5.4247L42.1094 1.79189C42.0312 0.89345 41.3672 0.229387 40.5078 0.0340745C39.6094-0.122175 38.7891 0.26845 38.3984 1.01064L36.6406 4.37001C35.9375 4.33095 35.2344 4.29189 34.5312 4.29189C33.7891 4.29189 33.125 4.33095 32.3828 4.37001L30.625 1.01064C30.2344 0.26845 29.4141-0.122175 28.5156 0.0340745C27.6562 0.229387 27.0703 0.89345 26.9141 1.79189L26.3281 5.4247C25 5.81532 23.6719 6.32314 22.3828 6.83095L19.6484 4.44814C18.9844 3.78407 18.0469 3.66689 17.1875 4.13564C16.4453 4.56532 16.1328 5.4247 16.3281 6.3622L17.0312 9.95595C15.9766 10.7763 14.8047 11.7138 13.8281 12.6122L10.3906 11.245C9.53125 10.8934 8.67188 11.1278 8.04688 11.87C7.53906 12.5341 7.42188 13.4716 7.89062 14.1747L9.84375 17.3388C9.10156 18.5497 8.4375 19.7216 7.73438 21.0497L4.02344 20.9325C3.20312 20.8934 2.34375 21.3622 2.07031 22.2606C1.79688 23.0809 2.07031 23.9403 2.73438 24.4872L5.625 26.7919C5.27344 28.1591 5.03906 29.5263 4.96094 30.9716L1.40625 32.1044C0.507812 32.3778 0 33.0809 0 34.0184C0 34.9559 0.507812 35.6591 1.40625 35.9325L4.96094 37.0653C5.03906 38.5106 5.27344 39.9169 5.625 41.245L2.73438 43.5497C2.07031 44.0966 1.79688 44.995 2.07031 45.8153C2.34375 46.7138 3.20312 47.1825 4.02344 47.1434L7.73438 46.9872C8.4375 48.3153 9.10156 49.5263 9.84375 50.6981L7.89062 53.8622C7.42188 54.6044 7.53906 55.5419 8.04688 56.2059C8.67188 56.9481 9.53125 57.2216 10.4297 56.8309L13.8281 55.4247C14.8047 56.3622 15.9766 57.2606 17.0312 58.12L16.3281 61.7138C16.1719 62.5731 16.4453 63.4716 17.1875 63.9403C18.0469 64.4091 18.9844 64.2138 19.6484 63.6278L22.3828 61.2059C23.6719 61.7138 25 62.2606 26.3281 62.6122L26.9141 66.2841C27.0703 67.1825 27.6562 67.8466 28.5156 68.0419C29.4141 68.1981 30.2344 67.8075 30.625 67.0263L32.3828 63.6669C33.125 63.7059 33.7891 63.745 34.5312 63.745ZM34.5312 58.12C21.0547 58.12 10.7422 47.4169 10.7422 34.0575C10.7422 20.6591 21.0547 9.91689 34.5312 9.91689C48.0078 9.91689 58.3594 20.6591 58.3594 34.0575C58.3594 47.4169 48.0078 58.12 34.5312 58.12ZM28.7891 29.2528L32.8906 26.6747L22.7734 9.33095L18.4766 11.7138ZM41.6406 36.4013L61.7969 36.4013L61.7969 31.6356L41.6406 31.6356ZM32.8516 41.5184L28.8281 38.8231L18.125 56.2841L22.3438 58.745ZM34.4141 42.495C39.1016 42.495 42.8516 38.745 42.8516 34.0966C42.8516 29.4481 39.1016 25.6591 34.4141 25.6591C29.7656 25.6591 26.0547 29.4481 26.0547 34.0966C26.0547 38.745 29.7656 42.495 34.4141 42.495ZM34.4141 37.2997C32.6172 37.2997 31.25 35.9325 31.25 34.0966C31.25 32.2606 32.6172 30.8544 34.4141 30.8544C36.25 30.8544 37.6562 32.2606 37.6562 34.0966C37.6562 35.9325 36.25 37.2997 34.4141 37.2997Z" fill="#ffffff"/>
 </g>
</svg>
